<?xml version="1.0" encoding="UTF-8" standalone="no"?>
<!-- Created with Inkscape (http://www.inkscape.org/) -->

<svg
   version="1.1"
   id="svg2"
   width="102.90485"
   height="84.739182"
   viewBox="0 0 102.90485 84.739182"
   sodipodi:docname="pensi-logo.pdf"
   xmlns:inkscape="http://www.inkscape.org/namespaces/inkscape"
   xmlns:sodipodi="http://sodipodi.sourceforge.net/DTD/sodipodi-0.dtd"
   xmlns="http://www.w3.org/2000/svg"
   xmlns:svg="http://www.w3.org/2000/svg">
  <defs
     id="defs6">
    <clipPath
       clipPathUnits="userSpaceOnUse"
       id="clipPath30">
      <path
         d="M 0,0 H 78 V 64 H 0 Z"
         id="path28" />
    </clipPath>
    <clipPath
       clipPathUnits="userSpaceOnUse"
       id="clipPath44">
      <path
         d="M 0,0 H 78 V 64 H 0 Z"
         id="path42" />
    </clipPath>
    <clipPath
       clipPathUnits="userSpaceOnUse"
       id="clipPath58">
      <path
         d="M 0,0 H 78 V 64 H 0 Z"
         id="path56" />
    </clipPath>
    <clipPath
       clipPathUnits="userSpaceOnUse"
       id="clipPath72">
      <path
         d="M 0,0 H 78 V 64 H 0 Z"
         id="path70" />
    </clipPath>
    <clipPath
       clipPathUnits="userSpaceOnUse"
       id="clipPath86">
      <path
         d="M 0,0 H 78 V 64 H 0 Z"
         id="path84" />
    </clipPath>
    <clipPath
       clipPathUnits="userSpaceOnUse"
       id="clipPath100">
      <path
         d="M 0,0 H 78 V 64 H 0 Z"
         id="path98" />
    </clipPath>
    <clipPath
       clipPathUnits="userSpaceOnUse"
       id="clipPath114">
      <path
         d="M 0,0 H 78 V 64 H 0 Z"
         id="path112" />
    </clipPath>
    <clipPath
       clipPathUnits="userSpaceOnUse"
       id="clipPath128">
      <path
         d="M 0,0 H 78 V 64 H 0 Z"
         id="path126" />
    </clipPath>
    <clipPath
       clipPathUnits="userSpaceOnUse"
       id="clipPath142">
      <path
         d="M 0,0 H 78 V 64 H 0 Z"
         id="path140" />
    </clipPath>
    <clipPath
       clipPathUnits="userSpaceOnUse"
       id="clipPath156">
      <path
         d="M 0,0 H 78 V 64 H 0 Z"
         id="path154" />
    </clipPath>
    <clipPath
       clipPathUnits="userSpaceOnUse"
       id="clipPath170">
      <path
         d="M 0,0 H 78 V 64 H 0 Z"
         id="path168" />
    </clipPath>
    <clipPath
       clipPathUnits="userSpaceOnUse"
       id="clipPath184">
      <path
         d="M 0,0 H 78 V 64 H 0 Z"
         id="path182" />
    </clipPath>
    <clipPath
       clipPathUnits="userSpaceOnUse"
       id="clipPath198">
      <path
         d="M 0,0 H 78 V 64 H 0 Z"
         id="path196" />
    </clipPath>
    <clipPath
       clipPathUnits="userSpaceOnUse"
       id="clipPath212">
      <path
         d="M 0,0 H 78 V 64 H 0 Z"
         id="path210" />
    </clipPath>
    <clipPath
       clipPathUnits="userSpaceOnUse"
       id="clipPath226">
      <path
         d="M 0,0 H 78 V 64 H 0 Z"
         id="path224" />
    </clipPath>
    <clipPath
       clipPathUnits="userSpaceOnUse"
       id="clipPath240">
      <path
         d="M 0,0 H 78 V 64 H 0 Z"
         id="path238" />
    </clipPath>
    <clipPath
       clipPathUnits="userSpaceOnUse"
       id="clipPath254">
      <path
         d="M 0,0 H 78 V 64 H 0 Z"
         id="path252" />
    </clipPath>
    <clipPath
       clipPathUnits="userSpaceOnUse"
       id="clipPath268">
      <path
         d="M 0,0 H 78 V 64 H 0 Z"
         id="path266" />
    </clipPath>
    <clipPath
       clipPathUnits="userSpaceOnUse"
       id="clipPath282">
      <path
         d="M 0,0 H 78 V 64 H 0 Z"
         id="path280" />
    </clipPath>
    <clipPath
       clipPathUnits="userSpaceOnUse"
       id="clipPath296">
      <path
         d="M 0,0 H 78 V 64 H 0 Z"
         id="path294" />
    </clipPath>
    <clipPath
       clipPathUnits="userSpaceOnUse"
       id="clipPath760">
      <g
         id="g766">
        <g
           id="g764">
          <path
             d="M 0,0 H 77 V 63 H 0 Z"
             id="path762" />
        </g>
      </g>
    </clipPath>
    <clipPath
       clipPathUnits="userSpaceOnUse"
       id="clipPath778">
      <g
         id="g784">
        <g
           id="g782">
          <path
             d="M 0,0 H 77 V 63 H 0 Z"
             id="path780" />
        </g>
      </g>
    </clipPath>
    <clipPath
       clipPathUnits="userSpaceOnUse"
       id="clipPath796">
      <g
         id="g802">
        <g
           id="g800">
          <path
             d="M 0,0 H 77 V 63 H 0 Z"
             id="path798" />
        </g>
      </g>
    </clipPath>
    <clipPath
       clipPathUnits="userSpaceOnUse"
       id="clipPath814">
      <g
         id="g820">
        <g
           id="g818">
          <path
             d="M 0,0 H 77 V 63 H 0 Z"
             id="path816" />
        </g>
      </g>
    </clipPath>
    <clipPath
       clipPathUnits="userSpaceOnUse"
       id="clipPath832">
      <g
         id="g838">
        <g
           id="g836">
          <path
             d="M 0,0 H 77 V 63 H 0 Z"
             id="path834" />
        </g>
      </g>
    </clipPath>
    <clipPath
       clipPathUnits="userSpaceOnUse"
       id="clipPath850">
      <g
         id="g856">
        <g
           id="g854">
          <path
             d="M 0,0 H 77 V 63 H 0 Z"
             id="path852" />
        </g>
      </g>
    </clipPath>
    <clipPath
       clipPathUnits="userSpaceOnUse"
       id="clipPath868">
      <g
         id="g874">
        <g
           id="g872">
          <path
             d="M 0,0 H 77 V 63 H 0 Z"
             id="path870" />
        </g>
      </g>
    </clipPath>
    <clipPath
       clipPathUnits="userSpaceOnUse"
       id="clipPath886">
      <g
         id="g892">
        <g
           id="g890">
          <path
             d="M 0,0 H 77 V 63 H 0 Z"
             id="path888" />
        </g>
      </g>
    </clipPath>
    <clipPath
       clipPathUnits="userSpaceOnUse"
       id="clipPath904">
      <g
         id="g910">
        <g
           id="g908">
          <path
             d="M 0,0 H 77 V 63 H 0 Z"
             id="path906" />
        </g>
      </g>
    </clipPath>
    <clipPath
       clipPathUnits="userSpaceOnUse"
       id="clipPath922">
      <g
         id="g928">
        <g
           id="g926">
          <path
             d="M 0,0 H 77 V 63 H 0 Z"
             id="path924" />
        </g>
      </g>
    </clipPath>
    <clipPath
       clipPathUnits="userSpaceOnUse"
       id="clipPath940">
      <g
         id="g946">
        <g
           id="g944">
          <path
             d="M 0,0 H 77 V 63 H 0 Z"
             id="path942" />
        </g>
      </g>
    </clipPath>
    <clipPath
       clipPathUnits="userSpaceOnUse"
       id="clipPath958">
      <g
         id="g964">
        <g
           id="g962">
          <path
             d="M 0,0 H 77 V 63 H 0 Z"
             id="path960" />
        </g>
      </g>
    </clipPath>
    <clipPath
       clipPathUnits="userSpaceOnUse"
       id="clipPath976">
      <g
         id="g982">
        <g
           id="g980">
          <path
             d="M 0,0 H 77 V 63 H 0 Z"
             id="path978" />
        </g>
      </g>
    </clipPath>
    <clipPath
       clipPathUnits="userSpaceOnUse"
       id="clipPath994">
      <g
         id="g1000">
        <g
           id="g998">
          <path
             d="M 0,0 H 77 V 63 H 0 Z"
             id="path996" />
        </g>
      </g>
    </clipPath>
    <clipPath
       clipPathUnits="userSpaceOnUse"
       id="clipPath1012">
      <g
         id="g1018">
        <g
           id="g1016">
          <path
             d="M 0,0 H 77 V 63 H 0 Z"
             id="path1014" />
        </g>
      </g>
    </clipPath>
    <clipPath
       clipPathUnits="userSpaceOnUse"
       id="clipPath1030">
      <g
         id="g1036">
        <g
           id="g1034">
          <path
             d="M 0,0 H 77 V 63 H 0 Z"
             id="path1032" />
        </g>
      </g>
    </clipPath>
    <clipPath
       clipPathUnits="userSpaceOnUse"
       id="clipPath1048">
      <g
         id="g1054">
        <g
           id="g1052">
          <path
             d="M 0,0 H 77 V 63 H 0 Z"
             id="path1050" />
        </g>
      </g>
    </clipPath>
    <clipPath
       clipPathUnits="userSpaceOnUse"
       id="clipPath1066">
      <g
         id="g1072">
        <g
           id="g1070">
          <path
             d="M 0,0 H 77 V 63 H 0 Z"
             id="path1068" />
        </g>
      </g>
    </clipPath>
    <clipPath
       clipPathUnits="userSpaceOnUse"
       id="clipPath1084">
      <g
         id="g1090">
        <g
           id="g1088">
          <path
             d="M 0,0 H 77 V 63 H 0 Z"
             id="path1086" />
        </g>
      </g>
    </clipPath>
    <clipPath
       clipPathUnits="userSpaceOnUse"
       id="clipPath1102">
      <g
         id="g1110">
        <g
           id="g1108"
           clip-path="url(#clipPath296)">
          <g
             id="g1106">
            <path
               d="m 53.234,37.684 h 2.48 v 13.648 h -2.48 z"
               style="fill:#181817;fill-opacity:1;fill-rule:nonzero;stroke:none"
               id="path1104" />
          </g>
        </g>
      </g>
    </clipPath>
  </defs>
  <sodipodi:namedview
     id="namedview4"
     pagecolor="#ffffff"
     bordercolor="#666666"
     borderopacity="1.0"
     inkscape:showpageshadow="2"
     inkscape:pageopacity="0.0"
     inkscape:pagecheckerboard="0"
     inkscape:deskcolor="#d1d1d1"
     showgrid="false">
    <inkscape:page
       x="0"
       y="0"
       id="page8"
       width="102.90485"
       height="84.739182" />
  </sodipodi:namedview>
  <g
     id="g10"
     inkscape:groupmode="layer"
     inkscape:label="Page 1"
     transform="matrix(1.3333333,0,0,1.3333333,0,2.4518129e-6)">
    <g
       id="g1096"
       clip-path="url(#clipPath1102)">
      <g
         id="g634">
        <path
           d="M 0,0 H 77 V 63 H 0 Z"
           id="path632" />
      </g>
    </g>
    <g
       id="g12" />
    <g
       id="g24"
       clip-path="url(#clipPath886)">
      <g
         id="g26"
         clip-path="url(#clipPath30)">
        <g
           id="g32">
          <path
             d="M 61.117,19.012 V 6.676 l 9.18,6.168 z M 64.426,0 H 53.234 V 34.125 L 71.758,21.895 C 80.777,15.578 78.645,0 64.426,0"
             style="fill:#f8b617;fill-opacity:1;fill-rule:nonzero;stroke:none"
             id="path34" />
        </g>
      </g>
    </g>
    <g
       id="g38"
       clip-path="url(#clipPath940)">
      <g
         id="g40"
         clip-path="url(#clipPath44)">
        <g
           id="g46">
          <path
             d="M 61.117,19.012 V 6.676 l 9.18,6.168 z M 64.426,0 H 53.234 V 34.125 L 71.758,21.895 C 80.777,15.578 78.645,0 64.426,0"
             style="fill:#f9c21c;fill-opacity:1;fill-rule:nonzero;stroke:none"
             id="path48" />
        </g>
      </g>
    </g>
    <g
       id="g52"
       clip-path="url(#clipPath958)">
      <g
         id="g54"
         clip-path="url(#clipPath58)">
        <g
           id="g60">
          <path
             d="M 2.008,60.93 C 0.832,60.93 0,60.254 0,59.035 v -1.019 c 0,-1.239 0.844,-1.977 1.988,-1.977 1.11,0 1.887,0.637 1.887,1.637 v 0.117 H 3.051 v -0.117 c 0,-0.473 -0.36,-0.914 -1.055,-0.914 -0.691,0 -1.117,0.422 -1.117,1.199 v 1.082 c 0,0.695 0.371,1.176 1.129,1.176 0.691,0 1.043,-0.446 1.043,-0.907 v -0.113 h 0.824 v 0.094 c 0,1.008 -0.758,1.637 -1.867,1.637"
             style="fill:#181817;fill-opacity:1;fill-rule:nonzero;stroke:none"
             id="path62" />
        </g>
      </g>
    </g>
    <g
       id="g66"
       clip-path="url(#clipPath832)">
      <g
         id="g68"
         clip-path="url(#clipPath72)">
        <g
           id="g74">
          <path
             d="m 7.508,57.914 c 0,-0.684 -0.344,-1.152 -1.09,-1.152 -0.695,0 -1.102,0.422 -1.102,1.179 v 1.11 c 0,0.687 0.344,1.168 1.09,1.168 0.696,0 1.102,-0.426 1.102,-1.184 z m -1.09,3.016 c -1.176,0 -1.973,-0.668 -1.973,-1.86 v -1.09 c 0,-1.238 0.879,-1.941 1.961,-1.941 1.164,0 1.969,0.731 1.969,1.922 v 1.035 c 0,1.238 -0.887,1.934 -1.957,1.934"
             style="fill:#181817;fill-opacity:1;fill-rule:nonzero;stroke:none"
             id="path76" />
        </g>
      </g>
    </g>
    <g
       id="g80"
       clip-path="url(#clipPath922)">
      <g
         id="g82"
         clip-path="url(#clipPath86)">
        <g
           id="g88">
          <path
             d="m 10.383,60.902 c -0.906,0 -1.121,-0.621 -1.121,-1.203 v -5.472 h 0.851 v 5.453 c 0,0.277 0.129,0.5 0.481,0.5 0.176,0 0.344,-0.02 0.519,-0.047 l 0.047,-0.008 v 0.648 c -0.25,0.075 -0.547,0.129 -0.777,0.129"
             style="fill:#181817;fill-opacity:1;fill-rule:nonzero;stroke:none"
             id="path90" />
        </g>
      </g>
    </g>
    <g
       id="g94"
       clip-path="url(#clipPath814)">
      <g
         id="g96"
         clip-path="url(#clipPath100)">
        <g
           id="g102">
          <path
             d="m 13.859,55.484 h -0.648 l 0.805,-1.664 h 0.953 z m 0.793,2.403 c 0,-0.649 -0.34,-1.125 -1.043,-1.125 -0.683,0 -1.136,0.433 -1.136,1.109 v 0.231 h 2.179 z m -0.941,3.043 c -1.156,0 -2.117,-0.61 -2.117,-1.907 v -0.98 c 0,-1.313 0.894,-2.004 2.023,-2.004 1.047,0 1.879,0.637 1.879,1.859 v 0.832 h -3.023 v 0.293 c 0,0.704 0.488,1.184 1.273,1.184 0.438,0 0.844,-0.277 1.094,-0.617 l 0.656,0.332 c -0.418,0.676 -1.074,1.008 -1.785,1.008"
             style="fill:#181817;fill-opacity:1;fill-rule:nonzero;stroke:none"
             id="path104" />
        </g>
      </g>
    </g>
    <g
       id="g108"
       clip-path="url(#clipPath796)">
      <g
         id="g110"
         clip-path="url(#clipPath114)">
        <g
           id="g116">
          <path
             d="m 19.238,57.812 c 0,-0.683 -0.554,-1.062 -1.136,-1.062 -0.52,0 -1.055,0.324 -1.055,1.055 v 1.265 c 0,0.575 0.363,1.008 1.047,1.008 0.543,0 1.144,-0.406 1.144,-1.109 z m -1.23,4.876 c -0.719,0 -1.477,-0.29 -1.82,-0.954 l 0.804,-0.359 c 0.27,0.379 0.637,0.617 1.11,0.617 0.73,0 1.136,-0.535 1.136,-1.137 V 60.07 H 19.23 c -0.296,0.434 -0.769,0.703 -1.324,0.703 -1.07,0 -1.726,-0.648 -1.726,-1.683 v -1.238 c 0,-1.223 0.859,-1.813 1.8,-1.813 0.493,0 1.02,0.258 1.25,0.629 h 0.016 v -0.527 h 0.824 v 4.613 c 0,1.109 -0.703,1.934 -2.062,1.934"
             style="fill:#181817;fill-opacity:1;fill-rule:nonzero;stroke:none"
             id="path118" />
        </g>
      </g>
    </g>
    <g
       id="g122"
       clip-path="url(#clipPath904)">
      <g
         id="g124"
         clip-path="url(#clipPath128)">
        <g
           id="g130">
          <path
             d="m 21.145,60.82 v -4.679 h 0.847 v 4.679 z m 0,-5.625 v -1.004 h 0.847 v 1.004 h -0.847"
             style="fill:#181817;fill-opacity:1;fill-rule:nonzero;stroke:none"
             id="path132" />
        </g>
      </g>
    </g>
    <g
       id="g136"
       clip-path="url(#clipPath868)">
      <g
         id="g138"
         clip-path="url(#clipPath142)">
        <g
           id="g144">
          <path
             d="m 25.949,57.914 c 0,-0.684 -0.34,-1.152 -1.09,-1.152 -0.695,0 -1.101,0.422 -1.101,1.179 v 1.11 c 0,0.687 0.344,1.168 1.094,1.168 0.691,0 1.097,-0.426 1.097,-1.184 z m -1.09,3.016 c -1.175,0 -1.968,-0.668 -1.968,-1.86 v -1.09 c 0,-1.238 0.879,-1.941 1.961,-1.941 1.164,0 1.968,0.731 1.968,1.922 v 1.035 c 0,1.238 -0.89,1.934 -1.961,1.934"
             style="fill:#181817;fill-opacity:1;fill-rule:nonzero;stroke:none"
             id="path146" />
        </g>
      </g>
    </g>
    <g
       id="g150"
       clip-path="url(#clipPath778)">
      <g
         id="g152"
         clip-path="url(#clipPath156)">
        <g
           id="g158">
          <path
             d="m 29.418,57.941 h 2.605 v 0.723 h -2.605 z"
             style="fill:#181817;fill-opacity:1;fill-rule:nonzero;stroke:none"
             id="path160" />
        </g>
      </g>
    </g>
    <g
       id="g164"
       clip-path="url(#clipPath760)">
      <g
         id="g166"
         clip-path="url(#clipPath170)">
        <g
           id="g172">
          <path
             d="m 36.617,60.93 c -1.172,0 -2.004,-0.676 -2.004,-1.895 v -1.019 c 0,-1.239 0.84,-1.977 1.989,-1.977 1.105,0 1.882,0.637 1.882,1.637 v 0.117 h -0.82 v -0.117 c 0,-0.473 -0.363,-0.914 -1.055,-0.914 -0.695,0 -1.117,0.422 -1.117,1.199 v 1.082 c 0,0.695 0.367,1.176 1.125,1.176 0.695,0 1.047,-0.446 1.047,-0.907 v -0.113 h 0.82 v 0.094 c 0,1.008 -0.757,1.637 -1.867,1.637"
             style="fill:#181817;fill-opacity:1;fill-rule:nonzero;stroke:none"
             id="path174" />
        </g>
      </g>
    </g>
    <g
       id="g178"
       clip-path="url(#clipPath850)">
      <g
         id="g180"
         clip-path="url(#clipPath184)">
        <g
           id="g186">
          <path
             d="m 42.191,60.82 v -0.695 h -0.027 c -0.324,0.5 -0.777,0.793 -1.406,0.793 -1.016,0 -1.524,-0.719 -1.524,-1.598 v -3.179 h 0.852 v 2.921 c 0,0.75 0.367,1.118 0.922,1.118 0.648,0 1.156,-0.516 1.156,-1.332 v -2.707 h 0.859 v 4.679 h -0.832"
             style="fill:#181817;fill-opacity:1;fill-rule:nonzero;stroke:none"
             id="path188" />
        </g>
      </g>
    </g>
    <g
       id="g192"
       clip-path="url(#clipPath976)">
      <g
         id="g194"
         clip-path="url(#clipPath198)">
        <g
           id="g200">
          <path
             d="m 46.262,56.852 c -0.149,0 -0.407,0.027 -0.539,0.074 -0.481,0.176 -0.821,0.656 -0.821,1.34 v 2.554 h -0.851 v -4.679 h 0.832 v 0.832 h 0.019 c 0.352,-0.575 0.922,-0.907 1.543,-0.907 0.137,0 0.305,0.028 0.418,0.036 v 0.789 c -0.113,-0.02 -0.558,-0.039 -0.601,-0.039"
             style="fill:#181817;fill-opacity:1;fill-rule:nonzero;stroke:none"
             id="path202" />
        </g>
      </g>
    </g>
    <g
       id="g206"
       clip-path="url(#clipPath994)">
      <g
         id="g208"
         clip-path="url(#clipPath212)">
        <g
           id="g214">
          <path
             d="m 49.109,60.93 c -0.777,0 -1.527,-0.223 -1.98,-0.797 l 0.594,-0.508 c 0.339,0.379 0.839,0.609 1.375,0.609 0.535,0 1.082,-0.218 1.082,-0.699 0,-0.465 -0.313,-0.574 -0.895,-0.703 l -0.621,-0.141 c -0.656,-0.148 -1.258,-0.5 -1.258,-1.203 0,-0.886 0.711,-1.461 1.758,-1.461 0.766,0 1.313,0.168 1.691,0.621 l -0.574,0.493 c -0.324,-0.309 -0.617,-0.426 -1.144,-0.426 -0.512,0 -0.871,0.258 -0.871,0.637 0,0.386 0.371,0.519 0.812,0.609 l 0.731,0.156 c 0.66,0.141 1.257,0.528 1.257,1.285 0,1.028 -1.023,1.528 -1.957,1.528"
             style="fill:#181817;fill-opacity:1;fill-rule:nonzero;stroke:none"
             id="path216" />
        </g>
      </g>
    </g>
    <g
       id="g220"
       clip-path="url(#clipPath1012)">
      <g
         id="g222"
         clip-path="url(#clipPath226)">
        <g
           id="g228">
          <path
             d="m 54.699,57.914 c 0,-0.684 -0.34,-1.152 -1.09,-1.152 -0.691,0 -1.101,0.422 -1.101,1.179 v 1.11 c 0,0.687 0.344,1.168 1.094,1.168 0.691,0 1.097,-0.426 1.097,-1.184 z m -1.09,3.016 c -1.175,0 -1.968,-0.668 -1.968,-1.86 v -1.09 c 0,-1.238 0.879,-1.941 1.961,-1.941 1.164,0 1.968,0.731 1.968,1.922 v 1.035 c 0,1.238 -0.886,1.934 -1.961,1.934"
             style="fill:#181817;fill-opacity:1;fill-rule:nonzero;stroke:none"
             id="path230" />
        </g>
      </g>
    </g>
    <g
       id="g234"
       clip-path="url(#clipPath1030)">
      <g
         id="g236"
         clip-path="url(#clipPath240)">
        <g
           id="g242">
          <path
             d="M 6.43,34.363 H 2.738 v 7.203 h 3.746 c 2.7,0 4.239,-1.214 4.239,-3.668 0,-2.402 -1.676,-3.535 -4.293,-3.535 z m 0.515,9.469 H 2.738 v 7.5 H 0.094 V 32.098 h 6.902 c 3.805,0 6.395,2.132 6.395,5.8 0,3.344 -2.211,5.934 -6.446,5.934"
             style="fill:#181817;fill-opacity:1;fill-rule:nonzero;stroke:none"
             id="path244" />
        </g>
      </g>
    </g>
    <g
       id="g248"
       clip-path="url(#clipPath1048)">
      <g
         id="g250"
         clip-path="url(#clipPath254)">
        <g
           id="g256">
          <path
             d="m 23.453,42.781 c 0,-1.89 -1,-3.293 -3.047,-3.293 -1.996,0 -3.32,1.27 -3.32,3.239 v 0.675 h 6.367 z m -2.75,8.875 c -3.375,0 -6.18,-1.781 -6.18,-5.558 v -2.86 c 0,-3.828 2.618,-5.851 5.907,-5.851 3.05,0 5.476,1.859 5.476,5.422 v 2.425 h -8.82 v 0.864 c 0,2.05 1.43,3.453 3.723,3.453 1.269,0 2.457,-0.809 3.183,-1.809 l 1.914,0.973 c -1.211,1.969 -3.129,2.941 -5.203,2.941"
             style="fill:#181817;fill-opacity:1;fill-rule:nonzero;stroke:none"
             id="path258" />
        </g>
      </g>
    </g>
    <g
       id="g262"
       clip-path="url(#clipPath1066)">
      <g
         id="g264"
         clip-path="url(#clipPath268)">
        <g
           id="g270">
          <path
             d="m 36.348,51.332 v -8.551 c 0,-2.187 -1.082,-3.238 -2.7,-3.238 -1.859,0 -3.398,1.512 -3.398,3.91 v 7.879 H 27.77 V 37.684 h 2.425 v 2.023 h 0.055 c 0.945,-1.457 2.293,-2.32 4.129,-2.32 2.965,0 4.449,2.074 4.449,4.664 v 9.281 h -2.48"
             style="fill:#181817;fill-opacity:1;fill-rule:nonzero;stroke:none"
             id="path272" />
        </g>
      </g>
    </g>
    <g
       id="g276"
       clip-path="url(#clipPath1084)">
      <g
         id="g278"
         clip-path="url(#clipPath282)">
        <g
           id="g284">
          <path
             d="m 45.922,51.656 c -2.266,0 -4.449,-0.648 -5.77,-2.32 l 1.723,-1.484 c 1,1.105 2.457,1.781 4.02,1.781 1.566,0 3.156,-0.649 3.156,-2.051 0,-1.348 -0.918,-1.672 -2.617,-2.051 l -1.805,-0.402 c -1.914,-0.434 -3.668,-1.457 -3.668,-3.508 0,-2.59 2.074,-4.262 5.125,-4.262 2.238,0 3.828,0.485 4.934,1.805 l -1.672,1.43 c -0.942,-0.887 -1.805,-1.239 -3.344,-1.239 -1.484,0 -2.535,0.754 -2.535,1.86 0,1.133 1.078,1.512 2.375,1.781 l 2.129,0.457 c 1.914,0.406 3.668,1.539 3.668,3.75 0,2.996 -2.993,4.453 -5.719,4.453"
             style="fill:#181817;fill-opacity:1;fill-rule:nonzero;stroke:none"
             id="path286" />
        </g>
      </g>
    </g>
  </g>
</svg>
