<?xml version="1.0" encoding="UTF-8" standalone="no"?>
<svg
   width="150.48"
   height="169.23"
   version="1.1"
   viewBox="0 0 150.48 169.23"
   xml:space="preserve"
   id="svg14"
   sodipodi:docname="quimica-pensi.svg"
   inkscape:version="1.1.2 (0a00cf5339, 2022-02-04)"
   xmlns:inkscape="http://www.inkscape.org/namespaces/inkscape"
   xmlns:sodipodi="http://sodipodi.sourceforge.net/DTD/sodipodi-0.dtd"
   xmlns="http://www.w3.org/2000/svg"
   xmlns:svg="http://www.w3.org/2000/svg"
   xmlns:rdf="http://www.w3.org/1999/02/22-rdf-syntax-ns#"
   xmlns:cc="http://creativecommons.org/ns#"
   xmlns:dc="http://purl.org/dc/elements/1.1/"><defs
     id="defs18" /><sodipodi:namedview
     id="namedview16"
     pagecolor="#ffffff"
     bordercolor="#666666"
     borderopacity="1.0"
     inkscape:pageshadow="2"
     inkscape:pageopacity="0.0"
     inkscape:pagecheckerboard="0"
     showgrid="false"
     inkscape:zoom="4.5913846"
     inkscape:cx="28.422799"
     inkscape:cy="84.614998"
     inkscape:window-width="1920"
     inkscape:window-height="1015"
     inkscape:window-x="0"
     inkscape:window-y="1112"
     inkscape:window-maximized="1"
     inkscape:current-layer="g12" /><metadata
     id="metadata2"><rdf:RDF><cc:Work
         rdf:about=""><dc:format>image/svg+xml</dc:format><dc:type
           rdf:resource="http://purl.org/dc/dcmitype/StillImage" /><dc:title /></cc:Work></rdf:RDF></metadata><g
     transform="matrix(1.3333 0 0 -1.3333 -2017 1219.8)"
     id="g12"><path
       d="m1586 898.37c-3.2493 7.1848-7.2628 12.143-11.691 13.907-1.179 0.46969-2.3726 0.7139-3.6036 0.71643-13.13 0.0273-23.881-27.532-23.987-61.543-0.1058-34.011 10.454-61.601 23.584-61.629 12.627-0.0263 23.042 25.462 23.915 57.664"
       fill="none"
       stroke="#000"
       stroke-linecap="round"
       stroke-width="3.75"
       id="path4"
       style="stroke:#ffd42a" /><path
       d="m1558.1 827.42v39.564h14.482c7.9979 0 14.482-6.4836 14.482-14.482 0-5.1737-2.7601-9.9544-7.2408-12.541zm21.462 23.984-11.421 6.594v-13.188z"
       id="path6"
       style="fill:#ffd42a" /><path
       d="m1616.2 860.99c6.6331 8.4132 9.2467 16.039 6.3528 21.086-0.9646 1.6823-2.4883 2.9834-4.4786 3.9102-10.748 5.005-35.207-0.80119-60.089-15.095-29.489-16.941-48.389-39.382-42.215-50.149 2.9303-5.1108 10.973-6.6771 21.78-5.0907"
       fill="none"
       stroke="#000"
       stroke-linecap="round"
       stroke-width="3.75"
       id="path8"
       style="stroke:#ffd42a" /><path
       d="m1603.3 815.14c9.3745-0.9732 16.312 0.71666 19.009 5.3604 6.2367 10.74-12.52 33.261-41.909 50.331-2.7551 1.6003-5.4993 3.1062-8.2273 4.4934-26.371 13.41-50.627 16.719-56.279 6.9863-2.6913-4.6347-0.7243-11.476 4.7417-19.118"
       fill="none"
       stroke="#000"
       stroke-linecap="round"
       stroke-width="3.75"
       id="path10"
       style="stroke:#ffd42a" /></g></svg>
